<svg xmlns="http://www.w3.org/2000/svg" width="29.538" height="23.999" viewBox="0 0 29.538 23.999">
  <path id="Path_63" data-name="Path 63" d="M29.538,50.841a12.625,12.625,0,0,1-3.489.956,6.022,6.022,0,0,0,2.664-3.347,12.1,12.1,0,0,1-3.84,1.466A6.055,6.055,0,0,0,14.4,54.057a6.236,6.236,0,0,0,.14,1.381A17.141,17.141,0,0,1,2.057,49.1a6.057,6.057,0,0,0,1.861,8.1,5.981,5.981,0,0,1-2.736-.746v.066a6.083,6.083,0,0,0,4.852,5.95,6.044,6.044,0,0,1-1.588.2,5.355,5.355,0,0,1-1.146-.1,6.113,6.113,0,0,0,5.658,4.218A12.168,12.168,0,0,1,1.45,69.371,11.342,11.342,0,0,1,0,69.282,17.048,17.048,0,0,0,9.29,72c11.143,0,17.236-9.231,17.236-17.232,0-.268-.009-.526-.022-.783a12.081,12.081,0,0,0,3.034-3.144Z" transform="translate(0 -48.001)" fill="#e20046"/>
</svg>
