<svg width="24" height="24" viewBox="0 0 24 24" fill="none" xmlns="http://www.w3.org/2000/svg">
<path d="M7.06406 0C0.513262 0 0 0.512662 0 7.06406V16.9359C0 23.4867 0.513262 24 7.06406 24H16.9359C23.4867 24 24 23.4873 24 16.9359V7.06406C24 0.512662 23.4873 0 16.9359 0H7.06406ZM5.50078 2.4H18.4992C21.375 2.4 21.6 2.62498 21.6 5.50078V18.4992C21.6 21.375 21.3744 21.6 18.4992 21.6H5.50078C2.62498 21.6 2.4 21.3744 2.4 18.4992V5.50078C2.4 2.62498 2.62498 2.4 5.50078 2.4ZM12.4441 4.61602V14.577C12.4441 15.9462 11.2536 16.6535 10.3992 16.6535C9.75542 16.6535 8.29102 16.1487 8.29102 14.5605C8.29102 12.8931 9.65725 12.4676 10.4145 12.4676C10.8555 12.4676 11.0285 12.5625 11.0285 12.5625V9.90469C11.0285 9.90469 10.6981 9.85547 10.3207 9.85547C7.6093 9.85547 5.67891 12.0501 5.67891 14.5605C5.67891 16.6815 7.33758 19.2492 10.3676 19.2492C13.595 19.2492 15.0727 16.5576 15.0727 14.5758V9.63516C15.0727 9.63516 16.5111 10.6418 18.4395 10.6418V8.12461C16.2273 7.96681 15.0447 6.48082 14.9625 4.61602H12.4441Z" fill="white"/>
</svg>
