<svg id="Group_131" data-name="Group 131" xmlns="http://www.w3.org/2000/svg" width="24" height="24" viewBox="0 0 24 24">
  <path id="facebook" d="M11.816,2.286h1.257V.1A16.233,16.233,0,0,0,11.241,0,2.907,2.907,0,0,0,8.187,3.235V5.164h-2V7.611h2V13.77h2.452V7.612h1.919l.3-2.448H10.639V3.478c0-.707.191-1.192,1.177-1.192Z" transform="translate(2.331 5.111)" fill="#e20046"/>
  <path id="Path_64" data-name="Path 64" d="M17.377,0H6.623A6.631,6.631,0,0,0,0,6.623V17.377A6.631,6.631,0,0,0,6.623,24H17.377A6.631,6.631,0,0,0,24,17.377V6.623A6.631,6.631,0,0,0,17.377,0Zm4.494,17.377a4.5,4.5,0,0,1-4.494,4.494H6.623a4.5,4.5,0,0,1-4.494-4.494V6.623A4.5,4.5,0,0,1,6.623,2.129H17.377a4.5,4.5,0,0,1,4.494,4.494Z" fill="#e20046"/>
</svg>
