<?xml version="1.0" encoding="UTF-8"?> <svg xmlns="http://www.w3.org/2000/svg" width="65" height="64" viewBox="0 0 65 64" fill="none"><path d="M10.7578 29.0945C10.9569 29.3918 11.572 30.3227 13.3107 30.3227C13.6022 30.3227 13.9044 30.3014 14.196 30.1846C14.7898 29.944 14.8964 29.5299 14.8964 29.2538C14.8964 28.7371 14.5338 28.553 14.2778 28.4504C14.0929 28.3831 14.068 28.369 13.3213 28.1991L12.3293 27.9938C11.8067 27.8664 11.5471 27.8098 11.2911 27.7071C10.9178 27.5585 9.90444 27.063 9.90444 25.7216C9.90444 24.1855 11.22 23.198 13.1578 23.198C14.9284 23.198 15.8849 24.0581 16.468 24.8367L15.2093 25.7676C14.9284 25.3676 14.3951 24.5642 13.076 24.5642C12.2476 24.5642 11.5258 24.9323 11.5258 25.5517C11.5258 26.2383 12.2938 26.3763 13.0404 26.5144L13.8902 26.6984C14.996 26.9285 16.5604 27.3744 16.5604 29.1087C16.5604 30.9668 14.8111 31.7136 13.0653 31.7136C12.6102 31.7136 12.0982 31.6676 11.5969 31.5296C11.0493 31.3703 10.0822 30.9775 9.46355 29.9935L10.7578 29.0981V29.0945Z" fill="black"></path><path d="M22.2635 24.589C20.852 24.589 19.9098 25.7145 19.9098 27.3992C19.9098 29.2219 20.9338 30.3121 22.2991 30.3121C23.3231 30.3121 24.6422 29.5794 24.6778 27.6292C24.7133 26.0472 23.8849 24.589 22.2635 24.589ZM22.2529 31.7136C21.2147 31.7136 20.2618 31.4269 19.4191 30.4749C18.6049 29.544 18.324 28.4893 18.324 27.47C18.324 24.9924 20.0271 23.2015 22.2742 23.2015C24.3151 23.2015 26.2244 24.6916 26.2138 27.4558C26.2031 29.7741 24.7809 31.7136 22.2529 31.7136Z" fill="black"></path><path d="M34.8324 29.2467C34.7258 29.5122 34.5302 29.9794 34.1213 30.4642C33.5382 31.1296 32.6173 31.7136 31.2769 31.7136C29.0973 31.7136 27.4298 30.1422 27.4298 27.4346C27.4298 24.727 29.236 23.2015 31.3338 23.2015C33.8973 23.2015 34.5053 25.1411 34.6902 25.7039L33.1507 26.1038C33.1258 25.9551 33.0582 25.6118 32.8484 25.3004C32.6742 25.0491 32.2191 24.589 31.3693 24.589C30.0289 24.589 29.0973 25.6791 29.0973 27.4098C29.0973 29.2573 30.0893 30.2767 31.38 30.2767C32.148 30.2767 32.6173 29.9086 32.9551 29.4839C33.2218 29.1264 33.3284 28.8291 33.3853 28.645L34.8289 29.2432L34.8324 29.2467Z" fill="black"></path><path d="M37.2822 41.7087H38.7969V23.1803H37.2822V41.7087Z" fill="black"></path><path d="M45.2929 28.6026L44.1622 24.8757L43.0209 28.6026H45.2929ZM42.612 29.9227L42.1356 31.5048H40.4929L43.2662 23.4068H45.0155L47.8244 31.5048H46.1818L45.7053 29.9227H42.612Z" fill="black"></path><path d="M55.2591 30.0962V31.473H49.3889V23.3608H50.9391V30.0962H55.2591Z" fill="black"></path><path d="M14.9178 33.4833H16.4324V41.5848H15.092L11.4902 35.9042L11.5827 41.5848H10.0787V33.4833H11.4653L15.1027 39.2099L14.9178 33.4833Z" fill="black"></path><path d="M23.8493 38.6826L22.7187 34.9521L21.5773 38.6826H23.8529H23.8493ZM24.2547 40.0027H21.1649L20.6849 41.5848H19.0422L21.8156 33.4833H23.5649L26.3738 41.5848H24.7311L24.2511 40.0027H24.2547Z" fill="black"></path><path d="M34.2244 34.8636H31.9524V41.5883H30.4129V34.8636H28.1871V33.4868H34.2244V34.8636Z" fill="black"></path><path d="M47.5862 33.4833L45.2431 41.5848H43.1667L40.7418 33.4833H42.3631L44.2049 39.8753L45.9862 33.4833H47.5862Z" fill="black"></path><path d="M50.9071 36.743H54.8716V38.0526H50.9071V40.2222H55.5329V41.5883H49.3889V33.4868H55.2413V34.8424H50.9035V36.7466L50.9071 36.743Z" fill="black"></path><path d="M63.2271 32.3613C63.2271 15.6557 49.4707 2.11425 32.5 2.11425C24.8484 2.11425 17.1293 5.38105 11.2733 10.9803C5.27156 16.7175 1.77289 24.3518 1.77289 32.3613C1.77289 49.0669 15.5293 62.6084 32.5 62.6084C49.4707 62.6084 63.2271 49.0669 63.2271 32.3613ZM64.5 32.3613C64.5 49.7571 50.1747 63.8613 32.5 63.8613C14.8253 63.8613 0.5 49.7571 0.5 32.3613C0.5 24.0014 4.14444 16.0486 10.388 10.0813C16.4751 4.26262 24.5071 0.861328 32.5 0.861328C50.1747 0.861328 64.5 14.9655 64.5 32.3613Z" fill="black"></path></svg> 