<svg xmlns="http://www.w3.org/2000/svg" width="480" height="480" fill="none"><path fill="#34A853" d="M283.7 182.61a5.217 5.217 0 0 0-5.218-5.217v25.217a5.218 5.218 0 0 0 5.218-5.217V182.61ZM283.699 222.607a5.218 5.218 0 0 0-5.218-5.217v41.739a5.218 5.218 0 0 0 5.218-5.218v-31.304Z"/><rect width="155.261" height="322.218" x="105.199" y="78.892" fill="#34A853" stroke="#34A853" stroke-width="3" rx="43.5"/><rect width="158.261" height="325.218" x="121.091" y="77.392" fill="#fff" rx="45"/><path stroke="#A0C2F9" stroke-linecap="round" stroke-width="4" d="M164.569 401.741h69.783c24.852 0 45-20.147 45-45V123.263c0-24.853-20.148-45-45-45h-67.174"/><circle cx="199.786" cy="93.479" r="4.783" fill="#4285F4"/><path fill="#C6FF00" d="M192.27 149.782c10.015-10.007 10.023-26.24.018-36.257-10.005-10.017-26.234-10.025-36.249-.018l-12.736 12.725c-10.015 10.007-10.023 26.24-.018 36.257 10.005 10.017 26.234 10.025 36.249.018l12.736-12.725Z"/><rect width="63.999" height="63.999" fill="#4285F4" rx="16" transform="matrix(-1 0 0 1 263.786 106.003)"/><rect width="128" height="128" x="214.13" y="170.002" fill="#CEEAD6" rx="20"/><mask id="a" width="129" height="129" x="214" y="170" maskUnits="userSpaceOnUse" style="mask-type:alpha"><rect width="128" height="128" x="214.13" y="170.002" fill="#CEEAD6" rx="20"/></mask><g mask="url(#a)"><path fill="#34A853" d="M339.272 295.281c.003-.001.004-.005.004-.008a61.474 61.474 0 0 0-1.057-5.347 62.14 62.14 0 0 0-9.698-21.248 62.142 62.142 0 0 0-10.006-11.03 61.964 61.964 0 0 0-7.569-5.616.144.144 0 0 1-.049-.194c1.241-2.155 2.485-4.307 3.725-6.461l3.641-6.311c.872-1.51 1.744-3.022 2.613-4.532a5.716 5.716 0 0 0 .318-5.063 5.62 5.62 0 0 0-2.316-2.673 5.68 5.68 0 0 0-3.471-.768 5.653 5.653 0 0 0-4.309 2.799 3510.94 3510.94 0 0 0-2.613 4.533l-3.641 6.31c-1.241 2.155-2.484 4.306-3.725 6.461l-.105.183a.707.707 0 0 1-.866.302 61.399 61.399 0 0 0-22.658-4.053 61.41 61.41 0 0 0-21.124 3.955.89.89 0 0 1-1.091-.384c-1.24-2.155-2.484-4.306-3.725-6.461l-3.641-6.31a3510.94 3510.94 0 0 1-2.613-4.533 5.643 5.643 0 0 0-4.309-2.799 5.563 5.563 0 0 0-1.064-.009 5.59 5.59 0 0 0-2.406.777 5.637 5.637 0 0 0-2.571 3.423 5.725 5.725 0 0 0 .08 3.204c.123.38.285.75.492 1.109.872 1.51 1.744 3.023 2.613 4.532l3.641 6.311c1.241 2.154 2.484 4.306 3.725 6.461a.066.066 0 0 1-.023.087 62.14 62.14 0 0 0-10.966 8.731 62.555 62.555 0 0 0-6.779 8.025 62.18 62.18 0 0 0-9.697 21.248 62.704 62.704 0 0 0-.938 4.599c-.042.25-.081.503-.12.753-.221 1.449.926 2.722 2.391 2.722h118.508c.933 0 1.662-.81 1.537-1.735a62.563 62.563 0 0 0-.142-.981c0-.003.001-.007.004-.009Z"/><path fill="#202124" d="M310.115 280.909c2.461-1.647 2.819-5.457.799-8.509-2.02-3.053-5.652-4.192-8.113-2.546-2.461 1.647-2.818 5.457-.799 8.509 2.02 3.053 5.653 4.192 8.113 2.546ZM254.348 278.374c2.02-3.053 1.662-6.862-.799-8.509-2.461-1.647-6.093-.507-8.113 2.545-2.02 3.053-1.662 6.862.799 8.509 2.461 1.647 6.093.507 8.113-2.545Z"/></g><rect width="128" height="64" x="135.951" y="322.001" fill="#34A853" rx="32"/><circle cx="167.787" cy="354.001" r="32" fill="#C6FF00"/><rect width="236" height="20" x="137.787" y="300.001" fill="#fff" stroke="#4285F4" stroke-width="4" rx="10"/><rect width="74.344" height="123.996" x="137.787" y="172.005" stroke="#AECBFA" stroke-width="4" rx="18"/><circle cx="295.951" cy="354.001" r="32" fill="#AECBFA"/><circle cx="279.786" cy="154.005" r="16" fill="#C6FF00"/></svg>